<?xml version="1.0" ?><!DOCTYPE svg  PUBLIC '-//W3C//DTD SVG 1.1//EN'  'http://www.w3.org/Graphics/SVG/1.1/DTD/svg11.dtd'><svg height="8.4666mm" style="shape-rendering:geometricPrecision; text-rendering:geometricPrecision; image-rendering:optimizeQuality; fill-rule:evenodd; clip-rule:evenodd" version="1.1" viewBox="0 0 846.66 846.66" width="8.4666mm" xml:space="preserve" xmlns="http://www.w3.org/2000/svg" xmlns:xlink="http://www.w3.org/1999/xlink"><defs><style type="text/css">
   <![CDATA[
    .fil0 {fill:black;fill-rule:nonzero}
   ]]>
  </style></defs><g id="Layer_x0020_1"><path class="fil0" d="M578.34 141.01l147.54 0c11.4,0 20.65,9.25 20.65,20.65l0 653.96c0,11.4 -9.25,20.65 -20.65,20.65l-605.1 0c-11.4,0 -20.65,-9.25 -20.65,-20.65l0 -653.96c0,-11.4 9.25,-20.65 20.65,-20.65l147.54 0 0 -47c0,-11.4 9.25,-20.65 20.65,-20.65l53.33 0c9.39,-36.95 42.77,-62.95 81.03,-62.95 38.26,0 71.64,26 81.03,62.95l53.33 0c11.4,0 20.65,9.25 20.65,20.65l0 47zm-82.9 259.67c32.56,25.06 51.88,63.65 51.88,104.87l0 10.33c0,11.4 -9.24,20.65 -20.64,20.65l-223.63 0c-11.4,0 -20.64,-9.25 -20.64,-20.65l0 -10.33c0,-41.22 19.33,-79.81 51.88,-104.87 -8.07,-13.93 -12.42,-30.37 -12.42,-46.41 0,-51.36 41.64,-92.99 93,-92.99 51.35,0 92.99,41.63 92.99,92.99 0,16.01 -4.37,32.52 -12.42,46.41zm-38.36 24.05c-13.08,-5.86 -16.42,-23.23 -6.01,-33.47 10.04,-9.85 15.5,-22.93 15.5,-36.99 0,-28.55 -23.15,-51.7 -51.7,-51.7 -28.56,0 -51.71,23.15 -51.71,51.7 0,14.03 5.46,27.18 15.48,37.01 9.9,9.75 7.52,26.53 -5.06,32.97 -27.18,13.91 -45.87,40.64 -49.3,70.99l181.17 0c-3.39,-29.99 -21.68,-56.45 -48.37,-70.51zm-211.33 175.69c-27.16,0 -27.16,-41.29 0,-41.29l355.16 0c27.16,0 27.16,41.29 0,41.29l-355.16 0zm0 131.55c-27.16,0 -27.16,-41.3 0,-41.3l177.58 0c27.16,0 27.16,41.3 0,41.3l-177.58 0zm0 -65.77c-27.16,0 -27.16,-41.3 0,-41.3l355.16 0c27.16,0 27.16,41.3 0,41.3l-355.16 0zm22.57 -483.9l-126.89 0 0 612.68 563.8 0 0 -612.68 -126.89 0 0 43.25c0,11.4 -9.25,20.65 -20.65,20.65l-268.72 0c-11.4,0 -20.65,-9.25 -20.65,-20.65l0 -43.25zm92.06 -67.65l-50.77 0 0 90.26 227.44 0 0 -90.26 -50.77 0c-11.4,0 -20.64,-9.24 -20.64,-20.64 0,-23.37 -18.94,-42.31 -42.31,-42.31 -23.37,0 -42.31,18.94 -42.31,42.31 0,11.4 -9.24,20.64 -20.64,20.64z"/></g></svg>